<svg width="45" height="45" viewBox="0 0 45 45" fill="none" xmlns="http://www.w3.org/2000/svg">
<circle cx="22.2638" cy="22.5045" r="22.0546" fill="#DC2A34"/>
<path d="M31.3164 17.8405L35.9617 22.4858L31.3164 27.1311" stroke="white" stroke-width="2"/>
<path d="M35.9617 22.4858H18.9273" stroke="white" stroke-width="2"/>
<path d="M28.4945 25.4483V31.9264C28.4945 32.0992 28.4604 32.2702 28.3942 32.4298C28.3279 32.5893 28.2308 32.7342 28.1084 32.8561C27.9861 32.9781 27.8408 33.0747 27.681 33.1403C27.5213 33.206 27.3501 33.2395 27.1773 33.2389H15.3695C15.1956 33.2414 15.0229 33.2093 14.8615 33.1444C14.7001 33.0796 14.5532 32.9833 14.4293 32.8612C14.3054 32.739 14.2071 32.5935 14.1399 32.433C14.0728 32.2726 14.0383 32.1004 14.0383 31.9264V13.0686C14.0401 12.8958 14.076 12.7251 14.144 12.5663C14.2119 12.4074 14.3106 12.2636 14.4343 12.1429C14.558 12.0223 14.7042 11.9273 14.8647 11.8633C15.0252 11.7993 15.1968 11.7677 15.3695 11.7702H27.1773C27.5238 11.7689 27.8567 11.9047 28.1035 12.1479C28.3502 12.3912 28.4908 12.7221 28.4945 13.0686V19.2702" stroke="white" stroke-width="2"/>
</svg>
