<svg width="45" height="45" viewBox="0 0 45 45" fill="none" xmlns="http://www.w3.org/2000/svg">
<circle cx="22.6046" cy="22.5045" r="22.0546" fill="#18719C"/>
<path d="M12.6823 23.7545C12.6313 23.345 12.605 22.9279 12.605 22.5045C12.605 16.9817 17.0821 12.5045 22.605 12.5045C25.7307 12.5045 28.5215 13.9386 30.3552 16.1847M30.3552 16.1847V12.5045M30.3552 16.1847V16.2544L26.6052 16.2545M32.5276 21.2545C32.5787 21.664 32.605 22.0811 32.605 22.5045C32.605 28.0274 28.1279 32.5045 22.605 32.5045C19.6182 32.5045 16.9373 31.1951 15.105 29.119M15.105 29.119V28.7545H18.855M15.105 29.119V32.5045" stroke="white" stroke-width="2" stroke-linecap="round" stroke-linejoin="round"/>
</svg>
